HIERARCHY
ROOT pelvis
{
  OFFSET 0 100 0
  CHANNELS 6 Xposition Yposition Zposition Zrotation Xrotation Yrotation
  JOINT pelvis_right_femur
  {
    OFFSET -10.78128 -3.44521 -0.5502486
    CHANNELS 3 Zrotation Xrotation Yrotation
    JOINT right_femur_tibia
    {
      OFFSET -0.8047443 -44.0398 -0.1307829
      CHANNELS 3 Zrotation Xrotation Yrotation
      JOINT right_tibia_foot
      {
        OFFSET 3.006224 -47.83518 -5
        CHANNELS 3 Zrotation Xrotation Yrotation
        End Site
        {
          OFFSET 0 -5 15
        }
      }
    }
  }
  JOINT pelvis_left_femur
  {
    OFFSET 10.78128 -3.44521 -0.5502486
    CHANNELS 3 Zrotation Xrotation Yrotation
    JOINT left_femur_tibia
    {
      OFFSET 0.8047443 -44.0398 -0.1307829
      CHANNELS 3 Zrotation Xrotation Yrotation
      JOINT left_tibia_foot
      {
        OFFSET -4.370144 -48.10324 -4.275266
        CHANNELS 3 Zrotation Xrotation Yrotation
        End Site
        {
          OFFSET 0 -5 15
        }
      }
    }
  }
  JOINT pelvis_spine1
  {
    OFFSET 0 6.468898 -3.129235
    CHANNELS 3 Zrotation Xrotation Yrotation
    JOINT spine1
    {
      OFFSET 0 23.15396 4.99043
      CHANNELS 3 Zrotation Xrotation Yrotation
      JOINT spine2
      {
        OFFSET 0 20.79997 -5.064912
        CHANNELS 3 Zrotation Xrotation Yrotation
        JOINT neck
        {
          OFFSET 0 14.38658 9.616178
          CHANNELS 3 Zrotation Xrotation Yrotation
          End Site
          {
            OFFSET 0 20 0
          }
        }
      }
      JOINT right_manubrium
      {
        OFFSET -5.722621 16.35077 3.967754
        CHANNELS 3 Zrotation Xrotation Yrotation
        JOINT right_clavicle
        {
          OFFSET -13.16364 1.694482 -4.693211
          CHANNELS 3 Zrotation Xrotation Yrotation
          JOINT right_humerus
          {
            OFFSET -28.5034 -0.3100689 -2.792744
            CHANNELS 3 Zrotation Xrotation Yrotation
            JOINT right_radius
            {
              OFFSET -25.15693 0.02248979 -1.271978
              CHANNELS 3 Zrotation Xrotation Yrotation
              End Site
              {
                OFFSET -15 0 0
              }
            }
          }
        }
      }
      JOINT left_manubrium
      {
        OFFSET 5.722621 16.35077 3.967754
        CHANNELS 3 Zrotation Xrotation Yrotation
        JOINT left_clavicle
        {
          OFFSET 13.16364 1.694482 -4.693211
          CHANNELS 3 Zrotation Xrotation Yrotation
          JOINT left_humerus
          {
            OFFSET 29.39168 -1.063119 -2.237045
            CHANNELS 3 Zrotation Xrotation Yrotation
            JOINT left_radius
            {
              OFFSET 24.59957 -0.9528479 0.9047498
              CHANNELS 3 Zrotation Xrotation Yrotation
              End Site
              {
                OFFSET 15 -0 -0
              }
            }
          }
        }
      }
    }
  }
}
MOTION
Frames: 7
Frame Time: 0.0416666666667
1498.205 100.6535 2577.958 5.493895 -2.507174 51.89611 0.6814837 19.10544 4.252319 -0 26.8393 -0 1.751437 -10.38748 -2.144923 -1.133942 -24.04283 -5.454809 -0 19.48317 -0 -5.377868 -8.034817 19.7043 -2.087969 -0.2285178 8.492684 -1.214373 8.982444 -2.534905 2.455867 22.2576 5.081532 2.010474 -17.6204 7.267857 0.7894255 -21.44467 10.45825 80.2418 24.75026 -4.09643 -0 0 23.54726 -26.06035 10.88713 15.00108 3.692998 -14.22598 -2.343948 -93.71154 24.01051 26.61224 0 0 -8.990617 -2.68197 6.483527 17.60131
1504.624 100.8856 2581.363 6.042045 -2.27802 52.05338 -0.2052885 17.10564 4.407648 -0 35.32673 -0 2.026472 -5.12587 -2.771219 -2.806413 -20.91371 -6.494357 -0 21.29625 -0 -4.655571 -8.80629 19.22551 -2.768593 -0.5860762 8.357385 -1.422747 9.557226 -2.746242 2.477526 22.06324 5.289532 2.266584 -17.7977 7.356355 1.399793 -20.94422 10.54519 81.29388 25.24684 -5.472007 -0 0 22.36806 -26.42669 11.37351 14.89673 3.424232 -14.54134 -2.747931 -93.12418 23.83332 26.36609 0 0 -8.962271 -2.442617 6.453045 17.55852
1510.938 101.7026 2584.673 6.675148 -2.257393 52.6477 -0.644516 13.40403 4.381735 -0 44.09415 -0 2.191775 -0.2769269 -3.79638 -4.159115 -16.68054 -7.124074 -0 22.71438 -0 -3.974849 -9.895625 18.46644 -3.292304 -0.6502206 7.801891 -1.471647 10.18225 -3.202719 2.370249 21.98148 5.480347 2.330282 -17.91387 7.415986 2.073012 -20.28691 10.74752 82.69039 25.7194 -7.285417 -0 0 20.70172 -26.44951 11.9427 14.70207 3.120465 -15.1141 -3.271592 -91.9951 23.73459 25.22688 0 0 -9.639183 -2.12589 6.399695 17.38097
1516.955 102.8941 2587.806 7.218372 -2.462995 53.64579 -0.6166807 8.414813 4.163678 -0 51.33953 -0 2.157354 2.83187 -5.057612 -5.008294 -11.66445 -7.37158 -0 22.70829 -0 -3.491063 -11.17388 17.54214 -3.534172 -0.4373996 6.813152 -1.291845 10.63249 -3.900196 2.14926 22.06796 5.622848 2.141085 -17.89317 7.474611 2.572845 -19.52681 10.93132 84.25251 25.98465 -9.262157 -0 0 18.78171 -26.01269 12.34234 14.43323 2.85876 -15.81948 -3.778484 -90.42556 23.81436 23.15516 0 0 -10.95483 -1.827696 6.343093 17.12887
1522.57 104.1614 2590.718 7.588714 -2.811531 54.91255 -0.293531 2.70228 3.830702 -0 55.48165 -0 1.849054 3.61216 -6.332679 -5.415734 -6.271007 -7.479296 -0 21.24876 -0 -3.277235 -12.53855 16.60933 -3.503985 -0.04618659 5.554987 -0.9020098 10.76875 -4.748083 1.899056 22.32061 5.707391 1.770405 -17.68052 7.569384 2.758274 -18.68897 10.98163 85.78919 25.98641 -11.2209 -0 0 16.83878 -25.12235 12.44283 14.04429 2.741766 -16.56051 -4.178246 -88.61368 24.12261 20.29367 0 0 -12.79845 -1.619505 6.340625 16.84832
1527.77 105.2109 2593.419 7.753949 -3.142562 56.2629 0.08692055 -3.22658 3.448908 -0 55.65836 -0 1.300522 2.310126 -7.432045 -5.549437 -0.939058 -7.707586 -0 18.95098 -0 -3.311777 -13.9657 15.79782 -3.318843 0.395081 4.289181 -0.3950621 10.56668 -5.609688 1.71712 22.66983 5.760141 1.378234 -17.29063 7.731923 2.649456 -17.78585 10.85091 87.1269 25.85893 -13.0889 -0 0 15.06029 -23.92957 12.31661 13.48875 2.866248 -17.29858 -4.440221 -86.78195 24.6293 16.94146 0 0 -15.03747 -1.500607 6.477115 16.52315
1532.625 105.8162 2595.969 7.69127 -3.290886 57.52796 0.3268971 -9.046975 3.0119 -0 51.84684 -0 0.6410147 -0.2429106 -8.247337 -5.557495 3.966611 -8.178184 -0 16.53819 -0 -3.521692 -15.48978 15.15801 -3.122798 0.7832014 3.248879 0.1111679 10.09507 -6.36183 1.667022 23.01092 5.82517 1.128846 -16.80172 7.969169 2.375807 -16.82622 10.55887 88.16799 25.83554 -14.87592 -0 0 13.53542 -22.68292 12.1677 12.76628 3.292629 -18.05296 -4.581883 -85.0845 25.21474 13.42349 0 0 -17.54892 -1.379482 6.826879 16.06029
